<svg fill="none" height="20" viewBox="0 0 20 20" width="20" xmlns="http://www.w3.org/2000/svg"><g fill="#212121"><path d="m6.20712 4-4.20712 4.20712v-1.41421l2.79291-2.79291z"/><path d="m3.5 16h1.5v-1.7071l-1.69458 1.6946c.06369.0082.12864.0125.19458.0125z"/><path d="m15.2072 16h-.2072v-1.207l3.0001-3.0001v1.4142z"/><path d="m18.0001 9.70712-3.098 3.09798c-.0989-.3428-.2693-.6553-.4939-.9203l3.5919-3.59189z"/><path d="m12.5 12c.4889 0 .9232.2339 1.197.5959.1902.2514.303.5646.303.9041v2.5h-1v-2.5c0-.2761-.2239-.5-.5-.5h-5c-.27614 0-.5.2239-.5.5v2.5h-1v-2.5c0-.076.00565-.1507.01656-.2236.09707-.6494.61041-1.1628 1.25981-1.2598.07296-.0109.14764-.0166.22363-.0166z"/><path d="m9.72239 10.9848c-.38222-.0423-.73847-.1707-1.0489-.3654-.42453-.2662-.76337-.65651-.96574-1.12003-.13363-.30606-.20775-.64406-.20775-.99937 0-.07288.00312-.14503.00923-.21632.10355-1.20814 1.06631-2.1709 2.27445-2.27445.07129-.00611.14344-.00923.21632-.00923.3553 0 .6933.07412.9994.20775.4635.20237.8538.54121 1.12.96575.1947.31043.3231.66668.3654 1.04889.01.09115.0152.18378.0152.27761 0 1.38071-1.1193 2.5-2.5 2.5-.09383 0-.18646-.0052-.27761-.0152zm.27761-.9848c.8284 0 1.5-.67157 1.5-1.5s-.6716-1.5-1.5-1.5c-.82843 0-1.5.67157-1.5 1.5s.67157 1.5 1.5 1.5z"/><path d="m2.11948 15.0876 4.84469-4.8446c-.18061-.31396-.31393-.65852-.39025-1.02401l-4.57392 4.57391v.7071c0 .2086.04256.4072.11948.5876z"/><path d="m11.743 5.46417c-.314-.18061-.6585-.31394-1.024-.39025l1.0739-1.07392h1.4142z"/><path d="m13.3195 7.38763c-.1129-.33725-.2758-.65159-.4799-.93425l2.4534-2.45338h1.207c.066 0 .1309.00426.1947.01251z"/><path d="m12.4495 11c.4391-.4303.7653-.9754.9301-1.58669l4.501-4.50096c.0769.18046.1195.37908.1195.58764v.7071l-4.8724 4.87241c-.2006-.0519-.4109-.0795-.6277-.0795z"/><path d="m2 11.7071 7.70712-7.7071h-1.41421l-6.29291 6.2929z"/></g></svg>